<?xml version="1.0" standalone="no"?>
<!DOCTYPE svg PUBLIC "-//W3C//DTD SVG 20010904//EN"
 "http://www.w3.org/TR/2001/REC-SVG-20010904/DTD/svg10.dtd">
<svg version="1.0" xmlns="http://www.w3.org/2000/svg"
 width="2400.000000pt" height="1326.000000pt" viewBox="0 0 2400.000000 1326.000000"
 preserveAspectRatio="xMidYMid meet">

<g transform="translate(0.000000,1326.000000) scale(0.100000,-0.100000)"
fill="#000000" stroke="none">
<path d="M23770 13253 c-1410 -33 -2814 -192 -4200 -474 -135 -28 -253 -53
-264 -56 -21 -6 -20 -45 10 -388 115 -1333 393 -2654 818 -3890 42 -121 76
-221 76 -222 0 -2 830 -3 1845 -3 l1845 0 0 2520 c0 2010 -3 2520 -12 2518 -7
-1 -60 -3 -118 -5z"/>
<path d="M8210 10735 l0 -2515 1123 0 1122 0 24 172 c222 1640 798 3290 1645
4722 42 70 76 130 76 132 0 2 -898 4 -1995 4 l-1995 0 0 -2515z"/>
<path d="M12563 13238 c-6 -7 -51 -83 -100 -168 -458 -787 -805 -1554 -1089
-2405 -261 -783 -429 -1516 -549 -2397 l-6 -48 38 0 c38 0 38 1 108 118 490
824 1243 1661 2127 2365 427 340 1029 743 1504 1007 l81 44 12 156 c6 85 36
378 66 650 29 272 57 527 60 565 3 39 9 82 11 98 l6 27 -1130 0 c-892 0 -1132
-3 -1139 -12z"/>
<path d="M15300 13233 c0 -10 -7 -130 -15 -268 -18 -316 -38 -885 -31 -892 3
-3 78 30 168 72 966 460 2053 828 3148 1065 58 13 109 27 115 32 5 4 -755 8
-1688 8 -1610 0 -1697 -1 -1697 -17z"/>
<path d="M18620 12559 c-36 -9 -167 -45 -291 -78 -939 -251 -1977 -624 -2789
-1000 -85 -40 -186 -86 -224 -104 l-69 -31 6 -296 c15 -673 72 -1332 168
-1950 25 -159 135 -772 154 -857 l5 -23 1871 0 c1745 0 1871 1 1865 17 -12 31
-115 458 -165 683 -246 1116 -383 2169 -459 3526 l-7 131 -65 -18z"/>
<path d="M14437 10915 c-694 -387 -1350 -843 -1893 -1317 -71 -62 -233 -216
-360 -342 -329 -329 -499 -532 -705 -839 -65 -98 -119 -183 -119 -188 0 -5
664 -9 1701 -9 l1701 0 -6 28 c-37 173 -101 887 -127 1397 -12 247 -13 1052
-2 1248 5 70 6 127 3 127 -3 0 -90 -47 -193 -105z"/>
<path d="M0 5810 l0 -1761 988 4 c1073 4 1062 4 1279 62 388 106 632 340 729
700 26 97 27 342 1 434 -42 154 -99 258 -200 367 -80 86 -169 147 -303 210
l-98 46 61 32 c148 79 242 174 308 310 63 129 85 231 85 389 0 261 -77 468
-238 639 -145 153 -332 242 -637 300 -106 21 -143 21 -1042 25 l-933 4 0
-1761z m1513 916 c125 -29 177 -96 177 -227 0 -123 -50 -203 -160 -253 -38
-17 -70 -21 -202 -24 l-158 -4 0 261 0 261 143 0 c84 0 166 -6 200 -14z m124
-1273 c73 -29 124 -73 159 -135 26 -47 29 -62 29 -138 0 -98 -19 -145 -81
-199 -80 -71 -169 -91 -406 -91 l-168 0 0 296 0 296 208 -4 c181 -3 213 -6
259 -25z"/>
<path d="M4145 7558 c-151 -429 -1205 -3484 -1205 -3494 0 -12 96 -14 670 -14
l670 0 7 28 c3 15 25 113 48 217 l41 190 487 3 487 2 5 -22 c3 -13 29 -111 58
-218 l52 -195 679 -3 c541 -2 677 0 674 10 -3 7 -285 799 -628 1761 l-623
1747 -709 0 c-558 0 -710 -3 -713 -12z m739 -1180 c28 -142 121 -551 175 -771
l68 -277 -254 0 c-169 0 -253 3 -253 10 0 6 18 82 39 168 75 297 201 852 201
885 0 17 20 5 24 -15z"/>
<path d="M6990 5810 l0 -1760 613 2 612 3 3 490 c2 446 -8 815 -24 873 -11 39
22 25 38 -17 30 -77 247 -445 526 -893 l284 -458 740 0 740 0 -17 28 c-10 15
-280 416 -600 892 -319 476 -584 870 -588 877 -5 8 200 338 531 855 296 464
542 849 546 856 6 10 -132 12 -689 10 l-697 -3 -266 -455 c-147 -251 -308
-525 -359 -611 -87 -147 -142 -265 -158 -336 -10 -48 -40 -45 -31 2 17 87 25
390 26 878 l0 527 -615 0 -615 0 0 -1760z"/>
<path d="M10670 5810 l0 -1760 1210 0 1210 0 0 485 0 485 -585 0 -585 0 0 170
0 170 495 0 495 0 0 460 0 460 -495 0 -495 0 0 165 0 165 560 0 560 0 0 480 0
480 -1185 0 -1185 0 0 -1760z"/>
<path d="M13360 5810 l0 -1760 620 0 620 0 2 567 c2 412 6 567 14 570 7 2 16
-9 22 -24 5 -15 130 -272 277 -570 l268 -543 724 0 c459 0 723 4 723 10 0 5
-196 309 -435 676 -240 367 -434 667 -433 668 81 34 212 111 256 152 71 64
158 170 202 243 136 232 174 587 95 898 -93 366 -388 665 -786 797 -216 72
-179 70 -1226 73 l-943 4 0 -1761z m1581 793 c111 -50 172 -150 172 -282 0
-100 -28 -165 -95 -226 -71 -64 -145 -85 -299 -85 l-119 0 0 303 c0 167 3 307
8 311 4 5 70 6 147 4 114 -3 148 -8 186 -25z"/>
<path d="M22485 3664 c-638 -87 -1109 -461 -1253 -994 -23 -85 -25 -114 -26
-280 0 -174 2 -190 27 -274 67 -217 183 -375 366 -499 160 -108 283 -149 654
-217 357 -66 412 -92 424 -203 7 -63 -2 -91 -42 -136 -56 -61 -120 -84 -250
-89 -264 -10 -546 89 -799 280 -60 45 -111 78 -113 72 -2 -5 -91 -229 -197
-499 -168 -425 -192 -492 -179 -502 26 -20 218 -101 341 -144 262 -90 540
-148 822 -169 869 -67 1563 338 1711 999 10 47 22 142 25 211 20 410 -155 740
-488 920 -158 85 -256 115 -667 205 -289 63 -345 95 -345 196 0 69 31 112 112
151 66 33 69 33 197 32 209 -3 387 -60 615 -198 58 -35 106 -63 108 -62 6 6
342 892 342 903 0 20 -306 166 -441 211 -229 76 -407 103 -676 101 -92 -1
-213 -7 -268 -15z"/>
<path d="M12645 3663 c-174 -15 -410 -68 -577 -129 -718 -264 -1158 -909
-1158 -1699 0 -626 275 -1165 758 -1488 303 -203 667 -313 1097 -333 756 -35
1521 357 1829 937 139 260 202 573 207 1029 l3 175 -987 3 -987 2 0 -420 0
-420 281 0 280 0 -6 -22 c-12 -42 -73 -125 -117 -161 -102 -83 -221 -120 -383
-120 -190 -1 -326 53 -450 178 -148 150 -215 331 -215 584 0 181 27 296 103
446 60 117 183 238 297 293 186 89 416 95 580 15 54 -26 138 -102 196 -175
l29 -38 595 221 c327 122 596 223 598 224 15 13 -118 205 -207 298 -310 325
-749 535 -1239 592 -114 13 -413 18 -527 8z"/>
<path d="M3930 1840 l0 -1760 615 0 615 0 0 595 0 595 388 -2 387 -3 3 -593 2
-592 615 0 615 0 0 1760 0 1760 -615 0 -615 0 0 -595 0 -595 -390 0 -390 0 0
595 0 595 -615 0 -615 0 0 -1760z"/>
<path d="M7463 2398 c4 -1337 0 -1260 73 -1477 121 -362 344 -591 724 -741
225 -90 486 -139 780 -147 720 -21 1248 227 1508 707 91 168 143 360 162 594
6 78 10 547 10 1197 l0 1069 -635 0 -635 0 0 -1057 c-1 -1130 -2 -1158 -50
-1254 -47 -94 -107 -134 -228 -151 -101 -15 -177 -4 -254 35 -101 51 -158 148
-178 301 -5 39 -10 532 -10 1099 l0 1027 -635 0 -636 0 4 -1202z"/>
<path d="M15000 1840 l0 -1760 615 0 615 0 0 595 0 595 390 0 390 0 0 -595 0
-595 615 0 615 0 0 1760 0 1760 -615 0 -615 0 0 -595 0 -595 -390 0 -390 0 0
595 0 595 -615 0 -615 0 0 -1760z"/>
<path d="M18522 1843 l3 -1758 1213 -3 1212 -2 0 485 0 485 -570 0 -570 0 0
165 0 165 478 2 477 3 3 463 2 462 -480 0 -480 0 0 165 0 165 545 0 545 0 0
480 0 480 -1190 0 -1190 0 2 -1757z"/>
</g>
</svg>
