<?xml version="1.0" standalone="no"?>
<!DOCTYPE svg PUBLIC "-//W3C//DTD SVG 20010904//EN"
 "http://www.w3.org/TR/2001/REC-SVG-20010904/DTD/svg10.dtd">
<svg version="1.0" xmlns="http://www.w3.org/2000/svg"
 width="259.000000pt" height="98.000000pt" viewBox="0 0 259.000000 98.000000"
 preserveAspectRatio="xMidYMid meet">

<g transform="translate(0.000000,98.000000) scale(0.100000,-0.100000)"
fill="#000000" stroke="none">
<path d="M116 647 c-66 -37 -81 -67 -81 -155 0 -90 21 -129 85 -162 44 -22
131 -27 192 -10 43 12 51 36 46 135 l-3 60 -72 3 -73 3 0 -30 c0 -26 4 -30 33
-33 29 -3 32 -6 35 -40 l3 -38 -54 0 c-45 0 -59 4 -80 26 -72 72 -26 194 74
194 22 0 48 -6 59 -12 17 -11 24 -9 46 14 l27 26 -34 21 c-49 30 -150 29 -203
-2z"/>
<path d="M430 490 l0 -180 40 0 40 0 0 180 0 180 -40 0 -40 0 0 -180z"/>
<path d="M590 490 l0 -180 40 0 39 0 3 118 3 117 68 -117 69 -118 49 0 49 0 0
180 0 180 -40 0 -39 0 -3 -117 -3 -118 -68 118 -69 117 -49 0 -49 0 0 -180z"/>
<path d="M990 490 l0 -180 40 0 39 0 3 117 3 117 66 -114 67 -115 51 -3 51 -3
0 180 0 181 -40 0 -39 0 -3 -117 -3 -118 -70 118 -70 117 -47 0 -48 0 0 -180z"/>
<path d="M1461 648 c-101 -54 -122 -197 -43 -282 37 -39 81 -56 149 -56 73 0
129 30 161 85 30 52 28 159 -4 202 -40 53 -70 67 -147 71 -61 3 -79 0 -116
-20z m162 -68 c36 -29 52 -81 37 -125 -22 -67 -87 -93 -151 -60 -34 18 -49 50
-49 106 0 83 98 130 163 79z"/>
<path d="M1825 644 c-12 -19 -16 -39 -12 -73 6 -61 66 -223 79 -215 6 4 17 22
25 41 13 33 12 41 -23 146 -20 62 -40 116 -44 120 -4 4 -15 -4 -25 -19z"/>
<path d="M1986 540 c-21 -71 -49 -148 -62 -171 -13 -22 -24 -45 -24 -50 0 -14
64 -11 84 4 11 8 43 83 77 180 l57 167 -46 0 -47 0 -39 -130z"/>
<path d="M2223 650 c-127 -65 -118 -271 14 -326 48 -21 137 -18 183 6 59 30
84 72 88 151 5 78 -10 114 -65 156 -50 39 -157 45 -220 13z m159 -70 c39 -30
53 -73 39 -120 -36 -122 -201 -97 -201 30 0 37 23 85 47 99 30 17 88 13 115
-9z"/>
</g>
</svg>
