<?xml version="1.0" standalone="no"?>
<!DOCTYPE svg PUBLIC "-//W3C//DTD SVG 20010904//EN"
 "http://www.w3.org/TR/2001/REC-SVG-20010904/DTD/svg10.dtd">
<svg version="1.0" xmlns="http://www.w3.org/2000/svg"
 width="1580.000000pt" height="609.000000pt" viewBox="0 0 1580.000000 609.000000"
 preserveAspectRatio="xMidYMid meet">

<g transform="translate(0.000000,609.000000) scale(0.100000,-0.100000)"
fill="#000000" stroke="none">
<path d="M784 5266 c-17 -8 -42 -29 -55 -47 l-24 -34 -3 -620 c-3 -688 -3
-681 61 -727 l32 -23 655 -5 655 -5 45 -25 c58 -33 105 -96 119 -160 7 -34 11
-258 11 -661 0 -673 -2 -650 63 -689 31 -19 55 -20 653 -20 691 0 685 1 763
-67 24 -20 54 -60 67 -87 l24 -51 0 -630 c0 -591 1 -632 18 -664 10 -19 34
-43 53 -53 32 -17 73 -18 664 -18 607 0 631 1 662 20 66 40 63 0 63 713 1 591
-1 649 -16 672 -37 56 -20 55 -697 55 -716 0 -696 -2 -777 80 -82 81 -80 62
-80 774 0 668 1 650 -53 690 -28 21 -38 21 -680 26 -649 5 -652 5 -693 27 -53
28 -96 71 -120 120 -18 36 -19 76 -24 688 -6 717 -1 675 -71 714 -36 21 -47
21 -660 21 -502 -1 -630 -3 -655 -14z"/>
<path d="M2355 5271 c-31 -13 -64 -54 -75 -92 -6 -20 -10 -275 -10 -639 l0
-606 23 -44 c42 -84 6 -80 728 -80 l635 0 53 -26 c61 -31 114 -96 130 -161 7
-27 11 -258 11 -660 0 -599 1 -619 20 -651 11 -18 34 -41 52 -52 32 -20 48
-20 668 -18 707 3 667 -1 710 71 19 31 20 55 20 665 0 689 2 666 -56 711 -26
21 -33 21 -645 21 -407 0 -635 4 -669 11 -75 16 -139 64 -172 128 l-28 53 0
622 c0 378 -4 635 -10 657 -5 19 -24 48 -41 65 l-30 29 -647 2 c-356 1 -656
-2 -667 -6z"/>
<path d="M3922 5263 c-19 -9 -41 -32 -53 -54 -18 -37 -19 -64 -19 -666 0 -605
1 -629 20 -660 40 -66 1 -63 708 -63 697 -1 679 -2 716 54 14 23 16 88 16 674
l0 649 -22 28 c-44 56 -34 55 -710 55 -555 0 -627 -2 -656 -17z"/>
<path d="M6100 3765 l0 -1515 295 0 295 0 0 751 c0 651 2 750 14 746 8 -3 266
-201 573 -438 307 -238 740 -574 962 -746 l404 -313 376 0 376 1 -31 27 c-16
15 -513 409 -1102 876 -855 678 -1070 852 -1060 862 10 10 1627 1195 1703
1249 17 12 -5 14 -177 14 l-197 1 -508 -373 c-938 -688 -1321 -967 -1327 -967
-3 0 -6 302 -6 670 l0 670 -295 0 -295 0 0 -1515z"/>
<path d="M9510 3765 l0 -1515 1025 0 1025 0 0 100 0 100 -722 2 -723 3 -3
1413 -2 1412 -300 0 -300 0 0 -1515z"/>
<path d="M11821 5263 c8 -10 205 -236 439 -503 393 -448 833 -951 868 -992 18
-22 66 29 -802 -853 l-649 -660 154 -5 154 -6 660 664 660 663 55 -64 c30 -35
291 -332 579 -660 l524 -597 354 0 353 0 -597 683 c-328 375 -664 758 -746
851 l-150 168 210 212 c115 116 409 414 653 661 l445 450 -165 3 -165 3 -175
-178 c-97 -98 -350 -355 -563 -571 -214 -216 -392 -392 -397 -390 -5 2 -232
258 -505 571 l-497 567 -355 0 c-337 0 -355 -1 -342 -17z"/>
<path d="M10539 1740 c-104 -18 -198 -80 -219 -146 -13 -39 -15 -101 -5 -135
9 -30 52 -76 87 -95 42 -22 139 -41 293 -59 178 -20 236 -36 269 -76 56 -66
16 -148 -92 -190 -46 -17 -79 -22 -167 -22 -148 -1 -222 23 -304 99 l-58 53
-33 -28 c-41 -34 -38 -47 31 -101 104 -82 193 -110 354 -110 159 0 266 33 332
102 98 102 76 244 -47 308 -47 24 -157 46 -300 60 -149 14 -215 33 -253 73
-24 26 -28 37 -23 66 9 59 58 98 144 117 150 33 308 2 399 -80 l48 -44 35 29
34 29 -34 36 c-45 47 -136 92 -219 110 -71 15 -197 17 -272 4z"/>
<path d="M6100 1340 l0 -390 355 0 355 0 0 40 0 40 -305 0 -305 0 0 140 0 140
250 0 250 0 0 45 0 45 -250 0 -250 0 0 119 c0 99 3 120 16 125 9 3 144 6 300
6 l284 0 0 40 0 40 -350 0 -350 0 0 -390z"/>
<path d="M13040 1711 c0 -10 -3 -33 -6 -50 l-6 -31 56 0 56 0 0 50 0 50 -50 0
c-42 0 -50 -3 -50 -19z"/>
<path d="M9300 1526 c-25 -6 -56 -19 -68 -28 -21 -14 -27 -14 -75 5 -41 17
-73 21 -158 21 -94 0 -112 -3 -160 -27 -64 -31 -96 -70 -107 -130 -10 -52 2
-102 35 -145 l25 -34 -30 -31 c-46 -48 -51 -82 -16 -119 23 -24 26 -32 14 -36
-8 -3 -27 -18 -42 -33 -57 -57 -25 -143 67 -186 113 -51 389 -42 493 17 107
62 110 185 5 232 -41 18 -75 22 -238 28 -206 7 -241 15 -229 53 10 31 25 39
59 30 17 -4 80 -8 140 -8 93 0 116 4 150 22 98 52 138 148 100 239 -14 34 -14
35 11 44 14 6 36 10 50 10 22 0 24 4 24 45 0 25 -1 45 -2 44 -2 0 -23 -6 -48
-13z m-182 -93 c91 -32 99 -152 13 -206 -30 -19 -50 -22 -126 -22 -103 1 -144
17 -175 68 -50 82 4 163 119 177 68 8 112 3 169 -17z m118 -474 c40 -20 44
-60 8 -88 -43 -34 -101 -45 -239 -45 -111 -1 -136 2 -169 19 -22 11 -44 27
-49 36 -15 24 -1 62 30 82 25 16 47 18 209 14 126 -3 189 -8 210 -18z"/>
<path d="M7138 1517 c-26 -8 -71 -28 -99 -45 -27 -18 -52 -32 -55 -32 -2 0 -4
16 -4 35 0 34 -1 35 -40 35 l-40 0 0 -280 0 -280 39 0 40 0 3 196 3 196 35 30
c111 95 269 105 327 20 16 -24 18 -54 21 -234 l3 -208 45 0 45 0 -3 218 c-3
210 -4 218 -28 262 -44 80 -177 119 -292 87z"/>
<path d="M7777 1520 c-84 -22 -164 -84 -202 -158 -25 -51 -31 -157 -11 -224
21 -73 87 -147 158 -178 127 -56 306 -32 403 53 44 40 48 46 36 61 -33 39 -50
39 -91 2 -120 -108 -313 -92 -395 32 -13 20 -27 52 -31 70 l-6 32 276 0 276 0
0 40 c0 102 -79 213 -178 250 -63 24 -180 33 -235 20z m176 -81 c63 -17 137
-95 137 -144 0 -15 -22 -16 -219 -13 -121 1 -223 6 -226 10 -11 11 42 94 75
118 17 12 43 26 58 30 39 12 131 12 175 -1z"/>
<path d="M8538 1514 c-29 -9 -67 -33 -102 -65 l-56 -51 0 56 0 56 -45 0 -45 0
0 -280 0 -280 45 0 45 0 0 169 0 169 33 43 c56 74 107 103 187 107 l70 4 0 44
0 44 -42 -1 c-24 0 -64 -7 -90 -15z"/>
<path d="M11377 1520 c-135 -34 -216 -130 -225 -266 -9 -133 56 -244 171 -295
104 -45 277 -34 362 24 39 27 85 69 85 78 0 4 -14 17 -31 30 l-31 21 -31 -30
c-41 -38 -83 -59 -146 -73 -127 -27 -264 54 -287 170 l-6 31 276 0 276 0 0 33
c0 109 -76 219 -177 257 -63 24 -181 34 -236 20z m176 -81 c58 -16 137 -95
137 -137 0 -5 -56 -13 -126 -17 -130 -7 -324 1 -324 15 0 26 70 108 110 128
49 24 137 30 203 11z"/>
<path d="M12154 1521 c-41 -10 -92 -42 -128 -80 -17 -17 -33 -31 -38 -31 -4 0
-8 23 -8 50 l0 50 -45 0 -45 0 0 -280 0 -280 45 0 45 0 0 169 0 169 33 43 c56
74 107 103 188 107 l70 4 -3 42 c-3 40 -4 41 -43 43 -22 1 -54 -2 -71 -6z"/>
<path d="M13475 1523 c-200 -45 -296 -201 -240 -390 48 -160 249 -243 446
-183 62 18 80 30 127 77 l54 56 -23 18 c-44 34 -56 33 -95 -11 -56 -61 -105
-83 -190 -83 -135 0 -233 82 -242 203 -6 78 16 137 68 184 44 39 92 56 165 56
80 0 123 -17 175 -69 47 -47 47 -47 79 -32 17 8 31 21 31 28 0 20 -70 93 -109
112 -65 33 -180 49 -246 34z"/>
<path d="M14131 1515 c-128 -36 -211 -144 -211 -275 0 -183 114 -298 306 -308
56 -3 98 1 136 12 61 17 143 69 165 102 13 20 11 24 -17 44 l-32 22 -31 -30
c-128 -121 -342 -96 -414 48 -44 85 -59 80 253 80 l277 0 -7 58 c-4 31 -16 76
-27 99 -27 55 -98 117 -157 138 -69 23 -177 28 -241 10z m233 -94 c39 -25 80
-73 90 -108 6 -19 2 -23 -26 -28 -42 -8 -404 -2 -413 7 -9 9 29 79 58 106 41
38 94 53 178 49 57 -3 85 -9 113 -26z"/>
<path d="M14781 1514 c-71 -19 -110 -48 -133 -101 -23 -52 -18 -90 19 -134 39
-46 73 -58 220 -80 146 -21 193 -37 212 -72 50 -94 -158 -160 -300 -95 -30 14
-72 40 -93 59 l-38 33 -31 -34 -30 -34 34 -29 c66 -57 151 -89 250 -95 207
-11 335 79 298 212 -21 77 -82 107 -270 132 -62 8 -129 22 -149 32 -31 15 -35
21 -35 56 0 59 34 80 136 85 94 4 152 -14 208 -64 l36 -33 32 28 31 28 -37 35
c-48 46 -86 64 -162 76 -84 14 -132 13 -198 -5z"/>
<path d="M9400 1503 c0 -4 63 -126 141 -271 l141 -264 -18 -34 c-11 -19 -34
-49 -52 -67 -32 -31 -37 -32 -113 -32 l-79 1 0 -37 c0 -33 3 -37 31 -43 52
-10 128 -7 162 8 62 26 97 78 267 407 94 180 170 330 170 333 0 4 -21 6 -46 4
l-47 -3 -111 -217 c-61 -120 -113 -218 -116 -218 -3 0 -43 71 -89 158 -166
312 -146 282 -196 282 -25 0 -45 -3 -45 -7z"/>
<path d="M12300 1505 c0 -3 63 -130 141 -281 l141 -274 46 0 47 0 143 280 144
280 -49 0 c-49 0 -49 0 -72 -47 -12 -27 -66 -131 -118 -232 l-96 -184 -116
229 -116 229 -47 3 c-27 2 -48 0 -48 -3z"/>
<path d="M13040 1230 l0 -280 45 0 45 0 0 280 0 280 -45 0 -45 0 0 -280z"/>
</g>
</svg>
