<?xml version="1.0" standalone="no"?>
<!DOCTYPE svg PUBLIC "-//W3C//DTD SVG 20010904//EN"
 "http://www.w3.org/TR/2001/REC-SVG-20010904/DTD/svg10.dtd">
<svg version="1.0" xmlns="http://www.w3.org/2000/svg"
 width="640.000000pt" height="246.000000pt" viewBox="0 0 640.000000 246.000000"
 preserveAspectRatio="xMidYMid meet">

<g transform="translate(0.000000,246.000000) scale(0.100000,-0.100000)"
fill="#000000" stroke="none">
<path d="M3007 2444 c-267 -41 -498 -152 -685 -329 -232 -219 -354 -470 -381
-781 -21 -235 22 -453 132 -667 172 -339 484 -564 892 -644 134 -26 387 -24
522 5 480 103 811 420 941 901 23 88 26 113 26 301 1 113 -2 213 -6 223 -7 16
-47 17 -633 17 l-625 0 0 -245 0 -245 354 0 355 0 -19 -55 c-56 -164 -167
-294 -310 -363 -112 -55 -181 -72 -320 -79 -474 -23 -794 309 -767 797 12 205
75 358 202 486 67 68 96 89 175 127 128 62 228 81 379 74 203 -9 330 -64 471
-205 l85 -85 248 84 c137 46 251 87 253 90 9 15 -90 143 -186 240 -202 204
-414 310 -705 354 -121 18 -279 18 -398 -1z"/>
<path d="M0 2155 l0 -255 340 0 340 0 0 -930 0 -930 265 0 265 0 0 930 0 930
338 2 337 3 3 253 2 252 -945 0 -945 0 0 -255z"/>
<path d="M4522 2158 l3 -253 338 -3 337 -2 0 -930 0 -930 265 0 265 0 0 930 0
930 335 0 335 0 0 255 0 255 -940 0 -940 0 2 -252z"/>
</g>
</svg>
