<?xml version="1.0" encoding="UTF-8" standalone="no"?>
<!DOCTYPE svg PUBLIC "-//W3C//DTD SVG 20010904//EN"
              "http://www.w3.org/TR/2001/REC-SVG-20010904/DTD/svg10.dtd">

<svg xmlns="http://www.w3.org/2000/svg"
     width="163.421mm" height="75.1482mm"
     viewBox="0 0 772 355">
  <path id="Selection"
        fill="none" stroke="black" stroke-width="1"
        d="M 20.00,23.00
           C 26.43,21.17 43.43,21.98 51.00,22.00
             53.48,22.00 56.69,21.80 58.90,23.02
             61.64,24.54 63.61,28.34 65.15,31.00
             65.15,31.00 74.15,46.00 74.15,46.00
             74.15,46.00 100.40,90.00 100.40,90.00
             100.40,90.00 119.32,122.00 119.32,122.00
             119.32,122.00 137.20,152.00 137.20,152.00
             138.69,154.48 141.77,160.80 145.00,160.80
             148.75,160.80 153.14,151.98 154.77,149.00
             154.77,149.00 177.42,111.00 177.42,111.00
             177.42,111.00 217.28,44.00 217.28,44.00
             219.71,39.77 227.69,25.02 231.18,23.02
             233.33,21.80 236.57,22.00 239.00,22.00
             239.00,22.00 270.00,22.00 270.00,22.00
             267.75,29.86 251.48,54.20 246.20,63.00
             246.20,63.00 189.00,156.00 189.00,156.00
             189.00,156.00 172.58,183.00 172.58,183.00
             167.06,191.86 163.02,195.11 163.00,206.00
             163.00,206.00 163.00,252.00 163.00,252.00
             163.00,252.00 163.00,313.00 163.00,313.00
             162.98,321.73 162.54,321.98 153.00,322.00
             153.00,322.00 135.00,322.00 135.00,322.00
             126.89,321.89 127.01,320.48 127.00,313.00
             127.00,313.00 127.00,206.00 127.00,206.00
             126.98,194.64 123.51,192.52 117.80,183.00
             117.80,183.00 98.06,151.00 98.06,151.00
             98.06,151.00 46.58,67.00 46.58,67.00
             46.58,67.00 20.00,23.00 20.00,23.00 Z
           M 498.00,22.00
           C 498.00,22.00 526.00,22.00 526.00,22.00
             528.60,22.01 532.28,21.65 534.28,23.60
             535.95,25.23 538.76,34.32 539.67,37.00
             539.67,37.00 549.50,65.00 549.50,65.00
             549.50,65.00 599.31,206.00 599.31,206.00
             599.31,206.00 617.33,257.00 617.33,257.00
             618.40,260.18 621.87,272.81 625.15,273.38
             628.68,273.99 631.56,263.68 632.50,261.00
             632.50,261.00 648.00,217.00 648.00,217.00
             648.00,217.00 667.50,162.00 667.50,162.00
             667.50,162.00 700.95,67.00 700.95,67.00
             700.95,67.00 712.31,35.00 712.31,35.00
             716.50,23.25 715.62,22.12 724.00,22.00
             724.00,22.00 744.00,22.00 744.00,22.00
             745.88,22.00 749.92,21.77 751.38,23.02
             753.13,24.56 752.01,27.18 751.38,29.00
             751.38,29.00 746.69,42.00 746.69,42.00
             746.69,42.00 725.80,99.00 725.80,99.00
             725.80,99.00 700.95,167.00 700.95,167.00
             700.95,167.00 663.00,270.00 663.00,270.00
             663.00,270.00 649.81,306.00 649.81,306.00
             648.51,309.42 645.95,318.28 643.50,320.40
             641.29,322.33 637.76,321.99 635.00,322.00
             635.00,322.00 607.00,322.00 607.00,322.00
             607.00,322.00 595.42,290.00 595.42,290.00
             595.42,290.00 577.42,241.00 577.42,241.00
             577.42,241.00 526.14,101.00 526.14,101.00
             526.14,101.00 506.95,49.00 506.95,49.00
             506.95,49.00 498.00,22.00 498.00,22.00 Z
           M 330.00,132.00
           C 336.07,130.96 336.30,127.76 339.52,123.00
             342.32,118.85 347.35,113.11 351.17,109.90
             364.89,98.36 383.37,94.09 401.00,94.74
             411.68,95.14 420.84,96.53 431.00,99.90
             452.19,106.92 467.24,127.74 471.79,149.00
             476.21,169.66 475.00,182.31 475.00,203.00
             475.00,203.00 475.00,272.00 475.00,272.00
             475.00,272.00 475.00,322.00 475.00,322.00
             475.00,322.00 442.00,322.00 442.00,322.00
             442.00,322.00 442.00,189.00 442.00,189.00
             441.97,168.52 437.81,146.38 420.00,133.63
             408.04,125.07 387.01,122.71 373.00,126.59
             363.66,129.18 353.96,135.15 347.30,142.17
             337.09,152.92 332.07,167.32 332.00,182.00
             332.00,182.00 332.00,322.00 332.00,322.00
             332.00,322.00 298.00,322.00 298.00,322.00
             298.00,322.00 298.00,97.00 298.00,97.00
             298.00,97.00 330.00,97.00 330.00,97.00
             330.00,97.00 330.00,132.00 330.00,132.00 Z" />
</svg>
